<?xml version="1.0" encoding="UTF-8"?>
<svg id="Layer_2" data-name="Layer 2" xmlns="http://www.w3.org/2000/svg"  viewBox="0 0 196.4 48.3">
  <defs>
    <style>
      .cls-1 {
        fill: #231f20;
      }
    </style>
  </defs>
  <g id="Layer_1-2" data-name="Layer 1">
    <g>
      <path class="cls-1" d="m2.7,43.3c0,2.4.8,3.4,2.3,3.4s2.3-1,2.3-3.4v-1.4c0-2.4-.8-3.4-2.3-3.4s-2.3,1-2.3,3.4v1.4Zm2.3,5c-2.5,0-4.2-1.5-4.2-5v-1.4c0-3.5,1.7-5,4.2-5s4.2,1.5,4.2,5v1.4c0,3.5-1.7,5-4.2,5"/>
      <polygon class="cls-1" points="18.9 36.9 18.9 38.6 13.9 38.6 13.9 41.8 18.4 41.8 18.4 43.4 13.9 43.4 13.9 48.2 12 48.2 12 36.9 18.9 36.9"/>
      <polygon class="cls-1" points="33.1 36.9 33.1 38.6 28.1 38.6 28.1 41.5 32.6 41.5 32.6 43.2 28.1 43.2 28.1 46.5 33.1 46.5 33.1 48.2 26.2 48.2 26.2 36.9 33.1 36.9"/>
      <polygon class="cls-1" points="43.7 36.9 43.7 48.2 42 48.2 37.4 40.5 37.4 48.2 35.6 48.2 35.6 36.9 37.3 36.9 41.9 44.7 41.9 36.9 43.7 36.9"/>
      <path class="cls-1" d="m54.8,42.4v.9c0,3.5-1.6,5-4.1,5s-4.2-1.5-4.2-5v-1.4c0-3.6,1.7-5.1,4.2-5.1s3.7,1.3,4.1,3.6h-1.8c-.3-1.3-1-2-2.3-2s-2.3,1-2.3,3.4v1.4c0,2.4.8,3.4,2.3,3.4s2.1-.8,2.3-2.6h-2.2v-1.6h4.1-.1Z"/>
      <polygon class="cls-1" points="59.5 46.5 64.5 46.5 64.5 48.2 57.6 48.2 57.6 36.9 59.5 36.9 59.5 46.5"/>
      <path class="cls-1" d="m68.7,44.2h3l-1.5-4.5-1.5,4.5Zm-3.3,4l3.9-11.2h1.8l3.9,11.2h-2l-.8-2.3h-4.1l-.8,2.3h-2,.1Z"/>
      <polygon class="cls-1" points="85.2 36.9 85.2 48.2 83.5 48.2 78.9 40.5 78.9 48.2 77.1 48.2 77.1 36.9 78.7 36.9 83.3 44.7 83.3 36.9 85.2 36.9"/>
      <path class="cls-1" d="m94.5,43.2v-1.3c0-2.3-.7-3.3-2.3-3.3h-1.9v8h1.9c1.6,0,2.3-1,2.3-3.3m-6.1,4.9v-11.2h3.8c2.5,0,4.2,1.3,4.2,4.9v1.3c0,3.6-1.7,4.9-4.2,4.9h-3.8v.1Z"/>
      <polygon class="cls-1" points="121.2 7.2 124.5 .8 126.2 .8 126.2 11.9 124.4 11.9 124.4 4.4 121.9 9.8 120.5 9.8 118 4.5 118 11.9 116.2 11.9 116.2 .8 118 .8 121.2 7.2"/>
      <path class="cls-1" d="m130.8,8h3l-1.5-4.5-1.5,4.5Zm-3.3,3.9l3.9-11.2h1.8l3.9,11.2h-2l-.8-2.3h-4l-.8,2.3h-2,0Z"/>
      <polygon class="cls-1" points="138.7 .8 140.9 5.2 143.1 .8 145.3 .8 141.8 7.3 141.8 11.9 139.9 11.9 139.9 7.3 136.5 .8 138.7 .8"/>
      <g>
        <path class="cls-1" d="m147.9,7c0,2.4.8,3.4,2.3,3.4s2.3-1,2.3-3.4v-1.4c0-2.4-.8-3.4-2.3-3.4s-2.3,1-2.3,3.4v1.4Zm2.3,5.1c-2.5,0-4.2-1.5-4.2-5v-1.4c0-3.5,1.7-5,4.2-5s4.2,1.5,4.2,5v1.4c0,3.5-1.7,5-4.2,5"/>
        <path class="cls-1" d="m160,5.8c1.6,0,2.4-.4,2.4-1.7s-.8-1.7-2.4-1.7h-1.8v3.4s1.8,0,1.8,0Zm2.6,6.1l-2.2-4.5h-2.2v4.5h-1.9V.7h3.8c2.6,0,4.1,1.1,4.1,3.3s-.7,2.5-2,3l2.4,4.8h-2.1l.1.1Z"/>
      </g>
      <path class="cls-1" d="m168.4,8h3l-1.5-4.5-1.5,4.5Zm-3.3,3.9l3.9-11.2h1.8l3.9,11.2h-2l-.8-2.3h-4l-.8,2.3h-2,0Z"/>
      <polygon class="cls-1" points="177.8 10.3 182.8 10.3 182.8 11.9 175.9 11.9 175.9 .8 177.8 .8 177.8 10.3"/>
      <g>
        <path class="cls-1" d="m122.2,22.3c-.3-1.4-1-2-2.2-2s-2.3,1-2.3,3.4v1.4c0,2.4.8,3.4,2.3,3.4s2-.6,2.2-2h1.8c-.4,2.5-1.8,3.6-4,3.6s-4.2-1.5-4.2-5v-1.4c0-3.5,1.7-5,4.2-5s3.7,1.2,4.1,3.6h-1.9Z"/>
        <path class="cls-1" d="m127.1,25.2c0,2.4.8,3.4,2.3,3.4s2.3-1,2.3-3.4v-1.4c0-2.4-.8-3.4-2.3-3.4s-2.3,1-2.3,3.4v1.4Zm2.3,5c-2.5,0-4.2-1.5-4.2-5v-1.4c0-3.5,1.7-5,4.2-5s4.2,1.5,4.2,5v1.4c0,3.5-1.7,5-4.2,5"/>
      </g>
      <polygon class="cls-1" points="140.6 25.3 143.8 18.9 145.6 18.9 145.6 30 143.8 30 143.8 22.6 141.2 27.9 139.9 27.9 137.4 22.6 137.4 30 135.6 30 135.6 18.9 137.4 18.9 140.6 25.3"/>
      <path class="cls-1" d="m150,28.4h2c1.5,0,2.2-.6,2.2-1.7s-.8-1.7-2.4-1.7h-1.7v3.4h-.1Zm0-5h1.8c1.4,0,2-.6,2-1.6s-.4-1.4-2.2-1.4h-1.6v3Zm1.7-4.5c2.6,0,4,1,4,2.9s-.7,2.1-1.6,2.4c1.3.4,2,1.2,2,2.6s-1.1,3.2-4,3.2h-4v-11.2h3.6v.1Z"/>
      <rect class="cls-1" x="158" y="18.9" width="1.9" height="11.2"/>
      <polygon class="cls-1" points="170.5 18.9 170.5 30 168.8 30 164.3 22.4 164.3 30 162.5 30 162.5 18.9 164.1 18.9 168.7 26.6 168.7 18.9 170.5 18.9"/>
      <polygon class="cls-1" points="179.8 18.9 179.8 20.5 174.8 20.5 174.8 23.4 179.3 23.4 179.3 25.1 174.8 25.1 174.8 28.4 179.8 28.4 179.8 30 173 30 173 18.9 179.8 18.9"/>
      <path class="cls-1" d="m187.7,25.1v-1.3c0-2.3-.7-3.3-2.3-3.3h-1.9v7.9h1.9c1.6,0,2.3-1,2.3-3.3m-6.1,4.9v-11.2h3.8c2.5,0,4.2,1.3,4.2,4.9v1.3c0,3.6-1.7,4.9-4.2,4.9h-3.8v.1Z"/>
      <path class="cls-1" d="m118.3,44.2h3l-1.5-4.5-1.5,4.5Zm-3.3,4l3.9-11.2h1.8l3.9,11.2h-2l-.8-2.3h-4l-.8,2.3h-2,0Z"/>
      <path class="cls-1" d="m134.1,37v6.6c0,3.3-1.7,4.7-4.2,4.7s-4.2-1.4-4.2-4.7v-6.7h1.9v6.7c0,2.1.8,3,2.3,3s2.3-.9,2.3-3v-6.7h1.9v.1Z"/>
      <polygon class="cls-1" points="143.8 37 143.8 38.6 140.6 38.6 140.6 48.2 138.7 48.2 138.7 38.6 135.5 38.6 135.5 37 143.8 37"/>
      <polygon class="cls-1" points="147 41.6 151.3 41.6 151.3 37 153.1 37 153.1 48.2 151.3 48.2 151.3 43.2 147 43.2 147 48.2 145.1 48.2 145.1 37 147 37 147 41.6"/>
      <g>
        <path class="cls-1" d="m157,43.3c0,2.4.8,3.4,2.3,3.4s2.3-1,2.3-3.4v-1.4c0-2.4-.8-3.4-2.3-3.4s-2.3,1-2.3,3.4v1.4Zm2.3,5c-2.5,0-4.2-1.5-4.2-5v-1.4c0-3.5,1.7-5,4.2-5s4.2,1.5,4.2,5v1.4c0,3.5-1.7,5-4.2,5"/>
        <path class="cls-1" d="m169.2,42c1.6,0,2.4-.4,2.4-1.7s-.8-1.7-2.4-1.7h-1.8v3.4s1.8,0,1.8,0Zm2.5,6.2l-2.2-4.5h-2.2v4.5h-1.9v-11.2h3.8c2.6,0,4.1,1.1,4.1,3.3s-.7,2.5-2,3l2.4,4.8h-2.1l.1.1Z"/>
      </g>
      <rect class="cls-1" x="175.6" y="37" width="1.9" height="11.2"/>
      <polygon class="cls-1" points="187.3 37 187.3 38.6 184.1 38.6 184.1 48.2 182.2 48.2 182.2 38.6 179 38.6 179 37 187.3 37"/>
      <polygon class="cls-1" points="189.8 37 192 41.4 194.2 37 196.4 37 192.9 43.5 192.9 48.2 191.1 48.2 191.1 43.5 187.6 37 189.8 37"/>
      <polygon class="cls-1" points="12.2 27.5 6 27.5 0 .4 7.1 .4 10 16.6 14.8 .4 20.5 .4 25.4 16.7 28.3 .4 35.4 .4 29.4 27.5 23.2 27.5 17.7 10 12.2 27.5"/>
      <polygon class="cls-1" points="54.8 .4 54.8 5.8 44.2 5.8 44.2 10.8 53.6 10.8 53.6 16.2 44.2 16.2 44.2 22.1 54.8 22.1 54.8 27.5 37.7 27.5 37.7 .4 54.8 .4"/>
      <path class="cls-1" d="m72,7.9c-1.1-1.8-2.4-2.5-4.8-2.5s-3.1,1-3.1,2.4,1.4,2.5,4.8,3.5c5.9,1.7,8.1,3.9,8.1,8.5s-3.3,8.1-9.5,8.1-8.3-1.2-10.8-4.4l4.9-3.4c1.3,1.7,3,2.4,5.4,2.4s3.5-1.1,3.5-2.4-1.1-2.4-5.1-3.7c-5.5-1.8-7.9-4.3-7.9-8.6s2.9-7.8,9.5-7.8,7.8,1.5,9.7,4.4l-4.8,3.5h.1Z"/>
      <polygon class="cls-1" points="99 .4 99 5.8 91.9 5.8 91.9 27.5 85.4 27.5 85.4 5.8 78.3 5.8 78.3 .4 99 .4"/>
      <rect class="cls-1" x="106.3" y=".3" width="1.8" height="47.9"/>
    </g>
  </g>
</svg>